<svg width="188" height="37" viewBox="0 0 188 37" fill="none" xmlns="http://www.w3.org/2000/svg">
<path d="M11.592 29.504C9.38 29.504 7.462 28.944 5.838 27.824C4.242 26.676 3.024 25.094 2.184 23.078C1.344 21.034 0.924 18.668 0.924 15.98C0.896 13.74 1.12 11.85 1.596 10.31C2.1 8.742 2.744 7.44 3.528 6.404C4.312 5.368 5.18 4.556 6.132 3.968C7.084 3.38 8.036 2.974 8.988 2.75C9.94 2.498 10.808 2.372 11.592 2.372C12.74 2.372 13.846 2.554 14.91 2.918C16.002 3.254 16.982 3.772 17.85 4.472C18.718 5.144 19.432 5.984 19.992 6.992L16.968 10.1L16.716 10.394L16.38 10.058C16.352 9.834 16.31 9.624 16.254 9.428C16.198 9.204 16.03 8.91 15.75 8.546C15.47 8.21 15.148 7.916 14.784 7.664C14.42 7.384 13.986 7.16 13.482 6.992C13.006 6.824 12.418 6.74 11.718 6.74C11.158 6.74 10.598 6.852 10.038 7.076C9.506 7.272 9.002 7.594 8.526 8.042C8.078 8.462 7.672 9.022 7.308 9.722C6.944 10.422 6.664 11.262 6.468 12.242C6.272 13.194 6.174 14.314 6.174 15.602C6.174 17.254 6.314 18.682 6.594 19.886C6.874 21.062 7.238 22.056 7.686 22.868C8.162 23.652 8.736 24.24 9.408 24.632C10.08 25.024 10.808 25.22 11.592 25.22C11.928 25.22 12.25 25.192 12.558 25.136C12.866 25.08 13.174 25.024 13.482 24.968C13.79 24.884 14.084 24.758 14.364 24.59C14.672 24.422 14.966 24.226 15.246 24.002V19.592H11.088V15.224H20.034V26.774C18.774 27.782 17.43 28.496 16.002 28.916C14.574 29.308 13.104 29.504 11.592 29.504ZM29.778 29.504C28.966 29.504 28.21 29.392 27.51 29.168C26.81 28.972 26.166 28.664 25.578 28.244C25.018 27.824 24.528 27.292 24.108 26.648C23.716 25.976 23.408 25.178 23.184 24.254C22.96 23.33 22.848 22.28 22.848 21.104V9.344H28.224V21.104C28.224 21.86 28.28 22.504 28.392 23.036C28.532 23.54 28.714 23.96 28.938 24.296C29.19 24.632 29.47 24.884 29.778 25.052C30.086 25.192 30.422 25.262 30.786 25.262C31.346 25.262 31.85 25.164 32.298 24.968C32.746 24.772 33.124 24.492 33.432 24.128C33.768 23.736 34.006 23.26 34.146 22.7C34.314 22.112 34.398 21.426 34.398 20.642V9.344H39.774V25.85C39.774 26.494 39.788 27.068 39.816 27.572C39.872 28.048 39.998 28.524 40.194 29H35.364C35.224 28.72 35.126 28.454 35.07 28.202C35.014 27.922 34.972 27.656 34.944 27.404C34.944 27.124 34.944 26.858 34.944 26.606C34.664 27.082 34.328 27.502 33.936 27.866C33.544 28.23 33.124 28.538 32.676 28.79C32.228 29.014 31.752 29.182 31.248 29.294C30.772 29.434 30.282 29.504 29.778 29.504ZM45.318 29V24.8H50.064V13.502H45.528V9.344H55.44V24.8H59.766V29H45.318ZM52.5 6.362C51.604 6.362 50.834 6.068 50.19 5.48C49.574 4.864 49.266 4.136 49.266 3.296C49.266 2.4 49.56 1.658 50.148 1.07C50.764 0.481998 51.548 0.187998 52.5 0.187998C53.368 0.187998 54.124 0.495998 54.768 1.112C55.44 1.728 55.776 2.456 55.776 3.296C55.776 4.136 55.44 4.864 54.768 5.48C54.124 6.068 53.368 6.362 52.5 6.362ZM72.366 29.504C71.246 29.504 70.196 29.294 69.216 28.874C68.236 28.426 67.368 27.768 66.612 26.9C65.856 26.032 65.268 24.954 64.848 23.666C64.428 22.35 64.218 20.838 64.218 19.13C64.218 17.45 64.414 15.966 64.806 14.678C65.198 13.39 65.758 12.326 66.486 11.486C67.214 10.618 68.082 9.974 69.09 9.554C70.098 9.106 71.19 8.882 72.366 8.882C72.954 8.882 73.514 8.938 74.046 9.05C74.606 9.162 75.124 9.358 75.6 9.638C76.076 9.918 76.468 10.324 76.776 10.856V0.733998H82.11H82.488V1.154C82.348 1.322 82.25 1.504 82.194 1.7C82.138 1.896 82.124 2.232 82.152 2.708L82.068 26.522C82.068 26.942 82.096 27.362 82.152 27.782C82.208 28.174 82.334 28.58 82.53 29H77.28C77.14 28.72 77.042 28.496 76.986 28.328C76.93 28.16 76.902 27.992 76.902 27.824C76.902 27.656 76.902 27.432 76.902 27.152C76.566 27.684 76.16 28.132 75.684 28.496C75.208 28.832 74.69 29.084 74.13 29.252C73.57 29.42 72.982 29.504 72.366 29.504ZM73.29 25.262C73.85 25.262 74.34 25.15 74.76 24.926C75.208 24.674 75.572 24.31 75.852 23.834C76.16 23.358 76.384 22.728 76.524 21.944C76.664 21.16 76.734 20.222 76.734 19.13C76.734 17.674 76.608 16.498 76.356 15.602C76.104 14.678 75.712 14.006 75.18 13.586C74.676 13.166 74.018 12.956 73.206 12.956C72.618 12.956 72.086 13.11 71.61 13.418C71.134 13.698 70.728 14.104 70.392 14.636C70.084 15.168 69.846 15.826 69.678 16.61C69.51 17.366 69.426 18.22 69.426 19.172C69.426 20.432 69.608 21.524 69.972 22.448C70.364 23.372 70.854 24.072 71.442 24.548C72.03 25.024 72.646 25.262 73.29 25.262ZM95.34 29.504C93.94 29.504 92.638 29.28 91.434 28.832C90.23 28.356 89.18 27.684 88.284 26.816C87.416 25.948 86.73 24.884 86.226 23.624C85.722 22.364 85.47 20.936 85.47 19.34C85.47 17.716 85.708 16.26 86.184 14.972C86.688 13.656 87.36 12.55 88.2 11.654C89.04 10.758 90.02 10.072 91.14 9.596C92.288 9.12 93.52 8.882 94.836 8.882C95.984 8.882 97.062 9.092 98.07 9.512C99.106 9.904 100.016 10.506 100.8 11.318C101.612 12.13 102.242 13.138 102.69 14.342C103.166 15.546 103.404 16.932 103.404 18.5C103.404 18.808 103.404 19.186 103.404 19.634C103.404 20.082 103.39 20.46 103.362 20.768H90.636C90.692 21.552 90.86 22.238 91.14 22.826C91.448 23.386 91.826 23.862 92.274 24.254C92.75 24.618 93.268 24.898 93.828 25.094C94.416 25.262 95.004 25.346 95.592 25.346C96.18 25.346 96.726 25.304 97.23 25.22C97.762 25.108 98.266 24.926 98.742 24.674C99.246 24.422 99.722 24.058 100.17 23.582L102.858 26.228C102.214 26.984 101.5 27.614 100.716 28.118C99.932 28.594 99.078 28.944 98.154 29.168C97.258 29.392 96.32 29.504 95.34 29.504ZM90.678 16.778H98.28C98.28 16.162 98.196 15.616 98.028 15.14C97.888 14.664 97.65 14.272 97.314 13.964C97.006 13.656 96.628 13.432 96.18 13.292C95.732 13.124 95.214 13.04 94.626 13.04C94.122 13.04 93.646 13.11 93.198 13.25C92.75 13.39 92.344 13.614 91.98 13.922C91.644 14.23 91.364 14.622 91.14 15.098C90.916 15.574 90.762 16.134 90.678 16.778ZM108.318 9.344H113.82L113.778 14.804L113.19 14.51C113.274 13.67 113.498 12.914 113.862 12.242C114.226 11.542 114.688 10.94 115.248 10.436C115.836 9.932 116.466 9.554 117.138 9.302C117.838 9.022 118.552 8.882 119.28 8.882C120.4 8.882 121.408 9.064 122.304 9.428C123.2 9.792 124.026 10.366 124.782 11.15L122.556 15.686L122.43 16.022L122.01 15.854C121.926 15.63 121.842 15.392 121.758 15.14C121.702 14.888 121.52 14.594 121.212 14.258C120.82 13.978 120.4 13.74 119.952 13.544C119.504 13.348 119.014 13.25 118.482 13.25C117.81 13.25 117.18 13.362 116.592 13.586C116.032 13.782 115.542 14.104 115.122 14.552C114.702 15 114.366 15.574 114.114 16.274C113.862 16.946 113.736 17.772 113.736 18.752V29H108.318V9.344ZM134.106 29.504C131.978 29.504 130.312 29 129.108 27.992C127.904 26.956 127.302 25.612 127.302 23.96C127.302 22.896 127.526 21.93 127.974 21.062C128.45 20.166 129.15 19.382 130.074 18.71C131.026 18.038 132.216 17.52 133.644 17.156C135.072 16.764 136.738 16.568 138.642 16.568C138.81 16.568 139.034 16.582 139.314 16.61C139.594 16.61 139.902 16.61 140.238 16.61C140.574 16.61 140.882 16.624 141.162 16.652L141.288 20.264C141.064 20.236 140.77 20.222 140.406 20.222C140.07 20.222 139.72 20.222 139.356 20.222C138.992 20.222 138.698 20.222 138.474 20.222C137.298 20.222 136.332 20.306 135.576 20.474C134.848 20.614 134.26 20.824 133.812 21.104C133.392 21.384 133.098 21.706 132.93 22.07C132.762 22.434 132.678 22.826 132.678 23.246C132.678 23.61 132.734 23.946 132.846 24.254C132.986 24.534 133.168 24.758 133.392 24.926C133.616 25.066 133.882 25.178 134.19 25.262C134.526 25.346 134.876 25.388 135.24 25.388C135.996 25.388 136.654 25.262 137.214 25.01C137.774 24.758 138.236 24.366 138.6 23.834C138.992 23.274 139.272 22.574 139.44 21.734C139.636 20.866 139.734 19.844 139.734 18.668C139.734 17.128 139.58 15.952 139.272 15.14C138.964 14.328 138.53 13.768 137.97 13.46C137.41 13.152 136.71 12.998 135.87 12.998C135.002 12.998 134.176 13.138 133.392 13.418C132.636 13.67 131.866 14.202 131.082 15.014L128.1 11.864C129.276 10.772 130.55 10.002 131.922 9.554C133.322 9.106 134.708 8.882 136.08 8.882C137.284 8.882 138.418 9.022 139.482 9.302C140.574 9.582 141.526 10.044 142.338 10.688C143.178 11.304 143.836 12.172 144.312 13.292C144.788 14.384 145.026 15.756 145.026 17.408V29H139.566V27.152C139.202 27.572 138.824 27.936 138.432 28.244C138.068 28.552 137.662 28.804 137.214 29C136.766 29.168 136.29 29.294 135.786 29.378C135.282 29.462 134.722 29.504 134.106 29.504ZM148.848 36.014L148.806 9.302H154.056V11.696C154.532 11.024 155.036 10.492 155.568 10.1C156.128 9.68 156.73 9.372 157.374 9.176C158.018 8.98 158.704 8.882 159.432 8.882C160.496 8.882 161.49 9.106 162.414 9.554C163.338 10.002 164.15 10.674 164.85 11.57C165.55 12.438 166.096 13.516 166.488 14.804C166.88 16.092 167.076 17.59 167.076 19.298C167.076 21.006 166.866 22.504 166.446 23.792C166.026 25.08 165.452 26.158 164.724 27.026C164.024 27.866 163.198 28.496 162.246 28.916C161.322 29.308 160.356 29.504 159.348 29.504C158.676 29.504 158.018 29.434 157.374 29.294C156.73 29.154 156.128 28.944 155.568 28.664C155.036 28.384 154.588 28.034 154.224 27.614V36.014H148.848ZM157.752 25.472C158.368 25.472 158.914 25.36 159.39 25.136C159.894 24.912 160.328 24.562 160.692 24.086C161.056 23.582 161.336 22.91 161.532 22.07C161.728 21.202 161.826 20.166 161.826 18.962C161.826 17.73 161.658 16.666 161.322 15.77C161.014 14.874 160.566 14.188 159.978 13.712C159.418 13.236 158.746 12.998 157.962 12.998C157.346 12.998 156.8 13.124 156.324 13.376C155.848 13.6 155.456 13.978 155.148 14.51C154.84 15.014 154.602 15.686 154.434 16.526C154.294 17.338 154.224 18.304 154.224 19.424C154.224 20.236 154.266 20.978 154.35 21.65C154.462 22.294 154.602 22.854 154.77 23.33C154.966 23.806 155.204 24.212 155.484 24.548C155.764 24.856 156.086 25.094 156.45 25.262C156.842 25.402 157.276 25.472 157.752 25.472ZM173.25 36.392C172.326 36.392 171.5 36.224 170.772 35.888C170.044 35.58 169.288 35.132 168.504 34.544L170.31 30.848L170.436 30.512L170.814 30.68C170.926 30.876 171.038 31.072 171.15 31.268C171.262 31.492 171.514 31.744 171.906 32.024C172.074 32.136 172.27 32.22 172.494 32.276C172.718 32.332 172.956 32.36 173.208 32.36C173.712 32.36 174.146 32.206 174.51 31.898C174.902 31.618 175.252 31.184 175.56 30.596C175.896 30.008 176.232 29.224 176.568 28.244L180.978 16.022C181.398 14.846 181.734 13.726 181.986 12.662C182.266 11.598 182.42 10.492 182.448 9.344H187.32C187.264 10.604 186.984 11.948 186.48 13.376C185.976 14.776 185.486 16.12 185.01 17.408L180.138 30.554C179.354 32.71 178.388 34.222 177.24 35.09C176.12 35.958 174.79 36.392 173.25 36.392ZM169.092 9.344H174.384L179.97 23.876L177.114 29.42L169.092 9.344Z" fill="#CAF0F8"/>
</svg>
