<svg width="107" height="22" viewBox="0 0 107 22" fill="none" xmlns="http://www.w3.org/2000/svg">
<path d="M6.648 17.264C5.416 17.264 4.352 16.952 3.456 16.328C2.56 15.688 1.872 14.792 1.392 13.64C0.928 12.488 0.696 11.152 0.696 9.632C0.68 8.352 0.8 7.264 1.056 6.368C1.328 5.456 1.68 4.704 2.112 4.112C2.544 3.52 3.024 3.056 3.552 2.72C4.08 2.384 4.608 2.152 5.136 2.024C5.664 1.896 6.152 1.832 6.6 1.832C7.224 1.832 7.832 1.936 8.424 2.144C9.016 2.352 9.552 2.648 10.032 3.032C10.528 3.4 10.92 3.856 11.208 4.4L9.768 5.768L9.576 5.936L9.432 5.768C9.448 5.64 9.432 5.52 9.384 5.408C9.336 5.296 9.232 5.136 9.072 4.928C8.864 4.688 8.64 4.488 8.4 4.328C8.176 4.168 7.92 4.048 7.632 3.968C7.344 3.872 7.008 3.824 6.624 3.824C6.24 3.824 5.872 3.888 5.52 4.016C5.168 4.128 4.84 4.32 4.536 4.592C4.232 4.848 3.968 5.192 3.744 5.624C3.52 6.056 3.344 6.584 3.216 7.208C3.088 7.816 3.024 8.528 3.024 9.344C3.024 10.336 3.112 11.2 3.288 11.936C3.464 12.672 3.704 13.288 4.008 13.784C4.328 14.28 4.712 14.656 5.16 14.912C5.608 15.168 6.104 15.296 6.648 15.296C6.84 15.296 7.04 15.28 7.248 15.248C7.472 15.216 7.688 15.176 7.896 15.128C8.12 15.064 8.328 14.976 8.52 14.864C8.728 14.752 8.92 14.632 9.096 14.504V11.456H6.552V9.488H11.232V15.704C10.528 16.248 9.784 16.648 9 16.904C8.232 17.144 7.448 17.264 6.648 17.264ZM17.16 17.264C16.712 17.264 16.288 17.2 15.888 17.072C15.504 16.96 15.152 16.776 14.832 16.52C14.512 16.264 14.232 15.944 13.992 15.56C13.768 15.176 13.592 14.712 13.464 14.168C13.352 13.624 13.296 13.008 13.296 12.32L13.32 5.888H15.672V12.32C15.672 12.88 15.72 13.36 15.816 13.76C15.928 14.144 16.072 14.456 16.248 14.696C16.44 14.936 16.656 15.112 16.896 15.224C17.136 15.32 17.392 15.368 17.664 15.368C18.016 15.368 18.344 15.304 18.648 15.176C18.952 15.048 19.216 14.856 19.44 14.6C19.68 14.328 19.856 13.992 19.968 13.592C20.096 13.176 20.16 12.696 20.16 12.152V5.888H22.56V15.248C22.56 15.568 22.568 15.872 22.584 16.16C22.616 16.432 22.688 16.712 22.8 17H20.568C20.488 16.824 20.432 16.656 20.4 16.496C20.368 16.32 20.344 16.152 20.328 15.992C20.328 15.816 20.328 15.64 20.328 15.464C20.168 15.768 19.968 16.032 19.728 16.256C19.504 16.48 19.248 16.672 18.96 16.832C18.688 16.976 18.4 17.08 18.096 17.144C17.808 17.224 17.496 17.264 17.16 17.264ZM26.16 17V15.104H28.92V7.784H26.28V5.888H31.32V15.104H33.84V17H26.16ZM29.976 3.896C29.544 3.896 29.176 3.752 28.872 3.464C28.584 3.16 28.44 2.808 28.44 2.408C28.44 1.976 28.584 1.616 28.872 1.328C29.16 1.04 29.528 0.896 29.976 0.896C30.392 0.896 30.752 1.048 31.056 1.352C31.376 1.656 31.536 2.008 31.536 2.408C31.536 2.808 31.376 3.16 31.056 3.464C30.752 3.752 30.392 3.896 29.976 3.896ZM41.472 17.264C40.88 17.264 40.304 17.144 39.744 16.904C39.2 16.648 38.712 16.28 38.28 15.8C37.848 15.32 37.504 14.712 37.248 13.976C37.008 13.224 36.888 12.36 36.888 11.384C36.888 10.392 37.008 9.536 37.248 8.816C37.504 8.096 37.848 7.504 38.28 7.04C38.712 6.56 39.208 6.208 39.768 5.984C40.328 5.744 40.912 5.624 41.52 5.624C41.952 5.624 42.344 5.68 42.696 5.792C43.064 5.904 43.392 6.072 43.68 6.296C43.968 6.52 44.2 6.8 44.376 7.136V0.943999H46.704H46.92V1.16C46.84 1.256 46.784 1.36 46.752 1.472C46.72 1.584 46.712 1.776 46.728 2.048V15.44C46.728 15.696 46.736 15.96 46.752 16.232C46.784 16.488 46.856 16.744 46.968 17H44.616C44.536 16.824 44.48 16.664 44.448 16.52C44.416 16.376 44.4 16.232 44.4 16.088C44.4 15.944 44.4 15.792 44.4 15.632C44.176 15.968 43.92 16.264 43.632 16.52C43.344 16.76 43.016 16.944 42.648 17.072C42.28 17.2 41.888 17.264 41.472 17.264ZM41.88 15.296C42.312 15.296 42.68 15.208 42.984 15.032C43.288 14.856 43.536 14.6 43.728 14.264C43.92 13.928 44.064 13.52 44.16 13.04C44.256 12.56 44.304 12.016 44.304 11.408C44.304 10.592 44.216 9.896 44.04 9.32C43.864 8.728 43.584 8.28 43.2 7.976C42.832 7.656 42.36 7.496 41.784 7.496C41.368 7.496 41 7.584 40.68 7.76C40.36 7.936 40.088 8.192 39.864 8.528C39.656 8.848 39.496 9.24 39.384 9.704C39.272 10.168 39.216 10.688 39.216 11.264C39.216 12.08 39.328 12.792 39.552 13.4C39.792 14.008 40.112 14.48 40.512 14.816C40.912 15.136 41.368 15.296 41.88 15.296ZM54.504 17.264C53.704 17.264 52.968 17.136 52.296 16.88C51.624 16.624 51.04 16.256 50.544 15.776C50.064 15.28 49.688 14.672 49.416 13.952C49.144 13.232 49.008 12.416 49.008 11.504C49.008 10.576 49.144 9.752 49.416 9.032C49.688 8.296 50.056 7.68 50.52 7.184C51 6.688 51.552 6.304 52.176 6.032C52.816 5.76 53.496 5.624 54.216 5.624C54.84 5.624 55.432 5.736 55.992 5.96C56.568 6.184 57.064 6.52 57.48 6.968C57.912 7.4 58.248 7.952 58.488 8.624C58.744 9.296 58.872 10.08 58.872 10.976C58.872 11.136 58.872 11.32 58.872 11.528C58.872 11.72 58.864 11.888 58.848 12.032H51.312C51.344 12.608 51.456 13.112 51.648 13.544C51.84 13.96 52.08 14.304 52.368 14.576C52.672 14.848 53.016 15.048 53.4 15.176C53.784 15.304 54.184 15.368 54.6 15.368C54.968 15.368 55.304 15.336 55.608 15.272C55.928 15.192 56.232 15.072 56.52 14.912C56.808 14.752 57.072 14.536 57.312 14.264L58.56 15.488C58.224 15.888 57.848 16.224 57.432 16.496C57.016 16.752 56.56 16.944 56.064 17.072C55.584 17.2 55.064 17.264 54.504 17.264ZM51.36 10.232H56.544C56.544 9.784 56.488 9.392 56.376 9.056C56.264 8.72 56.096 8.432 55.872 8.192C55.664 7.952 55.408 7.776 55.104 7.664C54.8 7.536 54.464 7.472 54.096 7.472C53.744 7.472 53.416 7.528 53.112 7.64C52.824 7.752 52.56 7.92 52.32 8.144C52.08 8.368 51.872 8.656 51.696 9.008C51.536 9.344 51.424 9.752 51.36 10.232ZM62.376 5.888H64.848L64.8 9.056L64.512 8.792C64.592 8.312 64.744 7.88 64.968 7.496C65.192 7.096 65.464 6.76 65.784 6.488C66.12 6.216 66.488 6.008 66.888 5.864C67.288 5.704 67.704 5.624 68.136 5.624C68.744 5.624 69.296 5.728 69.792 5.936C70.288 6.144 70.736 6.456 71.136 6.872L70.128 8.84L70.032 9.056L69.84 8.96C69.792 8.832 69.744 8.704 69.696 8.576C69.648 8.448 69.528 8.296 69.336 8.12C69.096 7.96 68.856 7.84 68.616 7.76C68.392 7.68 68.128 7.64 67.824 7.64C67.44 7.64 67.064 7.712 66.696 7.856C66.344 7.984 66.024 8.192 65.736 8.48C65.448 8.768 65.216 9.136 65.04 9.584C64.88 10.016 64.8 10.544 64.8 11.168V17.024H62.376V5.888ZM76.848 17.264C75.616 17.264 74.656 16.984 73.968 16.424C73.296 15.848 72.96 15.104 72.96 14.192C72.96 13.584 73.096 13.04 73.368 12.56C73.656 12.064 74.056 11.64 74.568 11.288C75.096 10.936 75.728 10.664 76.464 10.472C77.2 10.264 78.032 10.16 78.96 10.16C79.152 10.16 79.352 10.168 79.56 10.184C79.784 10.184 80.016 10.192 80.256 10.208C80.512 10.224 80.768 10.24 81.024 10.256L81.096 11.96C80.872 11.928 80.632 11.904 80.376 11.888C80.136 11.872 79.896 11.864 79.656 11.864C79.416 11.864 79.192 11.864 78.984 11.864C78.36 11.864 77.816 11.912 77.352 12.008C76.904 12.088 76.528 12.216 76.224 12.392C75.936 12.568 75.72 12.784 75.576 13.04C75.432 13.296 75.36 13.592 75.36 13.928C75.36 14.2 75.408 14.44 75.504 14.648C75.6 14.84 75.728 14.992 75.888 15.104C76.064 15.216 76.264 15.304 76.488 15.368C76.728 15.416 76.984 15.44 77.256 15.44C77.784 15.44 78.248 15.352 78.648 15.176C79.048 15 79.384 14.744 79.656 14.408C79.944 14.056 80.16 13.624 80.304 13.112C80.448 12.584 80.52 11.968 80.52 11.264C80.52 10.288 80.408 9.528 80.184 8.984C79.976 8.44 79.664 8.064 79.248 7.856C78.832 7.648 78.312 7.544 77.688 7.544C77.176 7.544 76.68 7.632 76.2 7.808C75.736 7.968 75.28 8.272 74.832 8.72L73.56 7.28C74.168 6.704 74.832 6.288 75.552 6.032C76.288 5.776 77.04 5.648 77.808 5.648C78.512 5.648 79.16 5.736 79.752 5.912C80.36 6.072 80.888 6.344 81.336 6.728C81.8 7.112 82.152 7.632 82.392 8.288C82.648 8.944 82.776 9.776 82.776 10.784V17H80.28V15.632C80.072 15.952 79.84 16.224 79.584 16.448C79.328 16.656 79.048 16.824 78.744 16.952C78.456 17.064 78.152 17.144 77.832 17.192C77.512 17.24 77.184 17.264 76.848 17.264ZM85.248 21.008V5.888H87.624V7.664C87.832 7.184 88.096 6.8 88.416 6.512C88.752 6.208 89.12 5.992 89.52 5.864C89.92 5.72 90.352 5.648 90.816 5.648C91.424 5.648 91.992 5.776 92.52 6.032C93.064 6.272 93.544 6.632 93.96 7.112C94.376 7.592 94.704 8.192 94.944 8.912C95.184 9.632 95.304 10.472 95.304 11.432C95.304 12.408 95.176 13.264 94.92 14C94.664 14.736 94.32 15.352 93.888 15.848C93.472 16.328 92.992 16.688 92.448 16.928C91.904 17.168 91.344 17.288 90.768 17.288C90.368 17.288 89.968 17.232 89.568 17.12C89.184 17.024 88.832 16.872 88.512 16.664C88.192 16.44 87.912 16.184 87.672 15.896V21.008H85.248ZM90.168 15.368C90.536 15.368 90.88 15.304 91.2 15.176C91.52 15.032 91.808 14.816 92.064 14.528C92.32 14.224 92.52 13.816 92.664 13.304C92.808 12.776 92.88 12.136 92.88 11.384C92.88 10.584 92.776 9.904 92.568 9.344C92.376 8.784 92.088 8.352 91.704 8.048C91.336 7.744 90.888 7.584 90.36 7.568C89.96 7.552 89.592 7.624 89.256 7.784C88.92 7.928 88.632 8.168 88.392 8.504C88.152 8.824 87.968 9.256 87.84 9.8C87.728 10.328 87.672 10.96 87.672 11.696C87.672 12.192 87.704 12.64 87.768 13.04C87.848 13.424 87.96 13.768 88.104 14.072C88.248 14.36 88.416 14.6 88.608 14.792C88.816 14.984 89.048 15.128 89.304 15.224C89.576 15.32 89.864 15.368 90.168 15.368ZM99.024 21.2C98.496 21.2 98.024 21.112 97.608 20.936C97.192 20.776 96.792 20.528 96.408 20.192L97.296 18.56L97.416 18.368L97.584 18.464C97.632 18.576 97.688 18.68 97.752 18.776C97.832 18.888 97.984 19.024 98.208 19.184C98.336 19.232 98.472 19.264 98.616 19.28C98.76 19.312 98.904 19.328 99.048 19.328C99.416 19.328 99.728 19.232 99.984 19.04C100.24 18.864 100.464 18.584 100.656 18.2C100.864 17.816 101.072 17.32 101.28 16.712L103.584 9.992C103.824 9.288 104.032 8.608 104.208 7.952C104.4 7.28 104.52 6.592 104.568 5.888H106.824C106.76 6.624 106.592 7.384 106.32 8.168C106.064 8.952 105.8 9.712 105.528 10.448L102.768 18.056C102.352 19.224 101.832 20.04 101.208 20.504C100.584 20.968 99.856 21.2 99.024 21.2ZM96.864 5.888H99.288L102.648 14.624L101.448 17.264L96.864 5.888Z" fill="#FFB703"/>
</svg>
